<svg width="16" height="16" viewBox="0 0 16 16" fill="none" xmlns="http://www.w3.org/2000/svg">
    <path d="M8 3C4.36364 3 1.25818 5.31818 0 8.5C1.25818 11.6818 4.36364 14 8 14C11.6364 14 14.7418 11.6818 16 8.5C14.7418 5.31818 11.6364 3 8 3ZM8 12C6.23273 12 4.8 10.5673 4.8 8.8C4.8 7.03273 6.23273 5.6 8 5.6C9.76727 5.6 11.2 7.03273 11.2 8.8C11.2 10.5673 9.76727 12 8 12ZM8 6.8C6.89455 6.8 6 7.69455 6 8.8C6 9.90545 6.89455 10.8 8 10.8C9.10545 10.8 10 9.90545 10 8.8C10 7.69455 9.10545 6.8 8 6.8Z" fill="rgba(255, 255, 255, 0.7)"/>
</svg> 